<svg width="614" height="310" viewBox="0 0 614 310" fill="none" xmlns="http://www.w3.org/2000/svg">
<path d="M429.519 132.403C436.261 128.983 441.952 135.736 437.519 141.403C424.732 160.401 421.345 170.308 436.019 183.903C447.04 188.701 453.444 191.667 459.519 190.403C476.286 182.996 484.306 176.797 496.019 161.903C458.118 147.202 446.325 134.651 443.519 103.903C421.808 89.2511 413.829 79.0864 411.519 55.4028C390.883 40.7922 383.577 30.7335 384.019 6.90277C384.019 -0.0971961 388.019 -2.09716 396.019 2.40277L491.019 47.4028C539.019 67.4028 556.519 119.403 535.019 167.903C523.89 188.003 514.395 198.338 491.019 214.903C496.417 224.538 500.351 230.143 508.519 240.403C520.647 250.686 528.406 255.685 550.019 258.403C550.019 258.403 581.169 260.123 593.019 258.403C604.868 256.683 603.519 245.903 593.019 242.903C582.519 239.903 562.019 228.403 562.019 228.403C550.528 214.159 545.905 205.74 539.019 190.403C535.519 178.403 547.519 178.903 550.019 186.903C556.75 201.028 560.92 208.623 570.519 220.403C570.519 220.403 579.519 223.403 601.519 233.403C623.519 243.403 611.519 269.903 591.519 270.903C571.519 271.903 552.519 270.903 552.519 270.903C529.749 268.684 518.294 264.784 501.519 250.403C492.757 241.118 482.57 223.523 480.019 219.114C477.519 216.403 473.019 211.903 475.019 209.903C550.519 171.403 540.019 90.9028 503.519 67.4028C479.519 53.4028 439.986 34.8318 396.019 15.4028C398.821 45.2907 429.019 48.9028 494.019 80.9028C502.958 83.8981 499.936 98.1608 487.019 90.9028L424.519 61.9028C431.519 92.4028 454.519 94.9028 514.019 123.403C518.461 127.322 514.513 135.837 508.519 134.403L456.519 109.903C455.368 120.56 463.019 132.341 479.519 140.903C514.019 156.403 515.53 156.903 510.019 164.903C494.519 187.403 479.281 197.26 461.519 202.903C456.019 204.65 430.61 195.403 425.519 191.403C418.519 185.903 413.887 174.835 414.519 161.903C415.163 148.718 429.519 132.403 429.519 132.403Z" fill="url(#paint0_linear)"/>
<path d="M151.472 203.704C153.072 203.704 154.448 204.28 155.6 205.432C156.816 206.52 157.424 207.896 157.424 209.56V265.144C157.424 266.808 156.88 268.216 155.792 269.368C154.704 270.456 153.264 271 151.472 271C149.68 271 148.208 270.456 147.056 269.368C145.968 268.28 145.424 266.872 145.424 265.144V226.456L129.584 250.648C128.944 251.416 128.208 252.056 127.376 252.568C126.544 253.016 125.68 253.208 124.784 253.144C123.952 253.208 123.12 253.016 122.288 252.568C121.456 252.056 120.72 251.416 120.08 250.648L104.24 225.592V265.144C104.24 266.872 103.728 268.28 102.704 269.368C101.68 270.456 100.336 271 98.672 271C97.072 271 95.76 270.456 94.736 269.368C93.712 268.216 93.2 266.808 93.2 265.144V209.56C93.2 207.96 93.776 206.584 94.928 205.432C96.144 204.28 97.584 203.704 99.248 203.704C100.208 203.704 101.168 203.96 102.128 204.472C103.088 204.92 103.824 205.528 104.336 206.296L125.264 238.456L146.768 206.296C147.28 205.528 147.952 204.92 148.784 204.472C149.68 203.96 150.576 203.704 151.472 203.704ZM216.976 244.12C216.912 245.656 216.304 246.904 215.152 247.864C214 248.824 212.656 249.304 211.12 249.304H179.44C180.208 253.08 181.968 256.056 184.72 258.232C187.472 260.344 190.576 261.4 194.032 261.4C196.656 261.4 198.704 261.176 200.176 260.728C201.648 260.216 202.8 259.704 203.632 259.192C204.528 258.616 205.136 258.232 205.456 258.04C206.608 257.464 207.696 257.176 208.72 257.176C210.064 257.176 211.216 257.656 212.176 258.616C213.136 259.576 213.616 260.696 213.616 261.976C213.616 263.704 212.72 265.272 210.928 266.68C209.136 268.152 206.736 269.4 203.728 270.424C200.72 271.448 197.68 271.96 194.608 271.96C189.232 271.96 184.528 270.84 180.496 268.6C176.528 266.36 173.456 263.288 171.28 259.384C169.104 255.416 168.016 250.968 168.016 246.04C168.016 240.536 169.168 235.704 171.472 231.544C173.776 227.384 176.816 224.216 180.592 222.04C184.368 219.8 188.4 218.68 192.688 218.68C196.912 218.68 200.88 219.832 204.592 222.136C208.368 224.44 211.376 227.544 213.616 231.448C215.856 235.352 216.976 239.576 216.976 244.12ZM192.688 229.24C185.264 229.24 180.88 232.728 179.536 239.704H204.688V239.032C204.432 236.344 203.12 234.04 200.752 232.12C198.384 230.2 195.696 229.24 192.688 229.24ZM253.272 218.68C255.192 218.68 256.792 219.224 258.072 220.312C259.416 221.4 260.088 222.68 260.088 224.152C260.088 226.136 259.576 227.64 258.552 228.664C257.528 229.624 256.312 230.104 254.904 230.104C253.944 230.104 252.856 229.88 251.64 229.432C251.448 229.368 251 229.24 250.296 229.048C249.656 228.856 248.952 228.76 248.184 228.76C246.52 228.76 244.92 229.272 243.384 230.296C241.848 231.32 240.568 232.888 239.544 235C238.584 237.048 238.104 239.512 238.104 242.392V265.144C238.104 266.808 237.56 268.216 236.472 269.368C235.384 270.456 234.008 271 232.344 271C230.68 271 229.304 270.456 228.216 269.368C227.128 268.216 226.584 266.808 226.584 265.144V225.496C226.584 223.832 227.128 222.456 228.216 221.368C229.304 220.216 230.68 219.64 232.344 219.64C234.008 219.64 235.384 220.216 236.472 221.368C237.56 222.456 238.104 223.832 238.104 225.496V226.744C239.576 224.12 241.688 222.136 244.44 220.792C247.192 219.384 250.136 218.68 253.272 218.68ZM288.421 218.68C293.861 218.68 298.245 219.544 301.573 221.272C304.901 222.936 306.565 225.176 306.565 227.992C306.565 229.4 306.149 230.648 305.317 231.736C304.485 232.76 303.397 233.272 302.053 233.272C301.029 233.272 300.197 233.144 299.557 232.888C298.917 232.568 298.277 232.184 297.637 231.736C297.061 231.224 296.485 230.808 295.909 230.488C295.269 230.168 294.309 229.88 293.029 229.624C291.813 229.368 290.821 229.24 290.053 229.24C285.253 229.24 281.477 230.744 278.725 233.752C276.037 236.696 274.693 240.568 274.693 245.368C274.693 249.976 276.069 253.816 278.821 256.888C281.573 259.896 285.093 261.4 289.381 261.4C292.517 261.4 294.853 261.016 296.389 260.248C296.773 260.056 297.285 259.736 297.925 259.288C298.629 258.776 299.269 258.392 299.845 258.136C300.421 257.88 301.125 257.752 301.957 257.752C303.557 257.752 304.805 258.264 305.701 259.288C306.661 260.312 307.141 261.624 307.141 263.224C307.141 264.76 306.245 266.2 304.453 267.544C302.661 268.888 300.293 269.976 297.349 270.808C294.405 271.576 291.269 271.96 287.941 271.96C283.013 271.96 278.661 270.808 274.885 268.504C271.173 266.2 268.293 263.032 266.245 259C264.197 254.904 263.173 250.36 263.173 245.368C263.173 240.184 264.229 235.576 266.341 231.544C268.517 227.512 271.525 224.376 275.365 222.136C279.205 219.832 283.557 218.68 288.421 218.68ZM353.571 219.64C355.235 219.64 356.611 220.216 357.699 221.368C358.787 222.456 359.331 223.832 359.331 225.496V249.88C359.331 256.792 357.411 262.2 353.571 266.104C349.795 270.008 344.387 271.96 337.347 271.96C330.307 271.96 324.899 270.008 321.123 266.104C317.347 262.2 315.459 256.792 315.459 249.88V225.496C315.459 223.832 316.003 222.456 317.091 221.368C318.179 220.216 319.555 219.64 321.219 219.64C322.883 219.64 324.259 220.216 325.347 221.368C326.435 222.456 326.979 223.832 326.979 225.496V249.88C326.979 253.784 327.843 256.696 329.571 258.616C331.299 260.472 333.891 261.4 337.347 261.4C340.867 261.4 343.491 260.472 345.219 258.616C346.947 256.696 347.811 253.784 347.811 249.88V225.496C347.811 223.832 348.355 222.456 349.443 221.368C350.531 220.216 351.907 219.64 353.571 219.64ZM337.923 216.376C337.283 216.376 336.579 216.088 335.811 215.512C335.107 214.936 334.787 214.168 334.851 213.208C334.851 212.632 335.043 212.024 335.427 211.384L340.995 201.592C341.635 200.44 342.403 199.512 343.299 198.808C344.195 198.104 345.187 197.752 346.275 197.752C348.003 197.752 349.283 198.2 350.115 199.096C351.011 199.992 351.427 201.144 351.363 202.552C351.235 204.024 350.627 205.4 349.539 206.68L342.243 214.744C341.219 215.832 339.779 216.376 337.923 216.376ZM398.491 218.68C400.411 218.68 402.011 219.224 403.291 220.312C404.635 221.4 405.307 222.68 405.307 224.152C405.307 226.136 404.795 227.64 403.771 228.664C402.747 229.624 401.531 230.104 400.123 230.104C399.163 230.104 398.075 229.88 396.859 229.432C396.667 229.368 396.219 229.24 395.515 229.048C394.875 228.856 394.171 228.76 393.403 228.76C391.739 228.76 390.139 229.272 388.603 230.296C387.067 231.32 385.787 232.888 384.763 235C383.803 237.048 383.323 239.512 383.323 242.392V265.144C383.323 266.808 382.779 268.216 381.691 269.368C380.603 270.456 379.227 271 377.562 271C375.899 271 374.523 270.456 373.435 269.368C372.347 268.216 371.803 266.808 371.803 265.144V225.496C371.803 223.832 372.347 222.456 373.435 221.368C374.523 220.216 375.899 219.64 377.562 219.64C379.227 219.64 380.603 220.216 381.691 221.368C382.779 222.456 383.323 223.832 383.323 225.496V226.744C384.795 224.12 386.907 222.136 389.659 220.792C392.411 219.384 395.355 218.68 398.491 218.68ZM424.276 265.144C424.276 266.808 423.732 268.216 422.644 269.368C421.556 270.456 420.18 271 418.516 271C416.852 271 415.476 270.456 414.388 269.368C413.3 268.216 412.756 266.808 412.756 265.144V225.496C412.756 223.832 413.3 222.456 414.388 221.368C415.476 220.216 416.852 219.64 418.516 219.64C420.18 219.64 421.556 220.216 422.644 221.368C423.732 222.456 424.276 223.832 424.276 225.496V265.144ZM418.42 213.4C416.244 213.4 414.708 213.048 413.812 212.344C412.916 211.64 412.468 210.392 412.468 208.6V206.776C412.468 204.984 412.948 203.736 413.908 203.032C414.868 202.328 416.404 201.976 418.516 201.976C420.756 201.976 422.324 202.328 423.22 203.032C424.116 203.736 424.564 204.984 424.564 206.776V208.6C424.564 210.456 424.084 211.736 423.124 212.44C422.228 213.08 420.66 213.4 418.42 213.4ZM485.459 245.368C485.459 250.488 484.307 255.096 482.003 259.192C479.699 263.224 476.531 266.36 472.499 268.6C468.531 270.84 464.147 271.96 459.347 271.96C454.483 271.96 450.067 270.84 446.099 268.6C442.131 266.36 438.995 263.224 436.691 259.192C434.387 255.096 433.235 250.488 433.235 245.368C433.235 240.248 434.387 235.672 436.691 231.64C438.995 227.544 442.131 224.376 446.099 222.136C450.067 219.832 454.483 218.68 459.347 218.68C464.147 218.68 468.531 219.832 472.499 222.136C476.531 224.376 479.699 227.544 482.003 231.64C484.307 235.672 485.459 240.248 485.459 245.368ZM473.939 245.368C473.939 242.232 473.267 239.448 471.923 237.016C470.643 234.52 468.883 232.6 466.643 231.256C464.467 229.912 462.035 229.24 459.347 229.24C456.659 229.24 454.195 229.912 451.955 231.256C449.779 232.6 448.019 234.52 446.675 237.016C445.395 239.448 444.755 242.232 444.755 245.368C444.755 248.504 445.395 251.288 446.675 253.72C448.019 256.152 449.779 258.04 451.955 259.384C454.195 260.728 456.659 261.4 459.347 261.4C462.035 261.4 464.467 260.728 466.643 259.384C468.883 258.04 470.643 256.152 471.923 253.72C473.267 251.288 473.939 248.504 473.939 245.368Z" fill="#063844"/>
<path d="M463.728 291.448C464.784 291.448 465.744 291.72 466.608 292.264C467.472 292.808 468.144 293.568 468.624 294.544C469.12 295.504 469.368 296.592 469.368 297.808C469.368 299.008 469.12 300.104 468.624 301.096C468.144 302.072 467.472 302.84 466.608 303.4C465.76 303.96 464.808 304.24 463.752 304.24C462.84 304.24 461.992 304.016 461.208 303.568C460.44 303.104 459.816 302.496 459.336 301.744V303.328C459.336 303.536 459.264 303.712 459.12 303.856C458.992 304 458.824 304.072 458.616 304.072C458.408 304.072 458.232 304 458.088 303.856C457.96 303.712 457.896 303.536 457.896 303.328V286.984C457.896 286.776 457.96 286.608 458.088 286.48C458.232 286.336 458.408 286.264 458.616 286.264C458.824 286.264 458.992 286.336 459.12 286.48C459.264 286.608 459.336 286.776 459.336 286.984V294.064C459.768 293.28 460.376 292.648 461.16 292.168C461.944 291.688 462.8 291.448 463.728 291.448ZM463.608 302.896C464.44 302.896 465.184 302.672 465.84 302.224C466.512 301.776 467.032 301.168 467.4 300.4C467.784 299.616 467.976 298.752 467.976 297.808C467.976 296.848 467.784 295.992 467.4 295.24C467.032 294.472 466.512 293.872 465.84 293.44C465.184 293.008 464.44 292.792 463.608 292.792C462.76 292.792 462 293.008 461.328 293.44C460.656 293.856 460.136 294.448 459.768 295.216C459.4 295.984 459.216 296.848 459.216 297.808C459.216 298.768 459.4 299.64 459.768 300.424C460.152 301.192 460.672 301.8 461.328 302.248C462 302.68 462.76 302.896 463.608 302.896ZM481.478 291.52C481.686 291.52 481.854 291.592 481.982 291.736C482.126 291.864 482.198 292.032 482.198 292.24V302.824C482.198 304.088 481.95 305.168 481.454 306.064C480.958 306.96 480.27 307.64 479.39 308.104C478.51 308.568 477.518 308.8 476.414 308.8C475.742 308.8 475.11 308.728 474.518 308.584C473.942 308.44 473.462 308.248 473.078 308.008C472.742 307.8 472.574 307.568 472.574 307.312C472.574 307.28 472.59 307.2 472.622 307.072C472.67 306.912 472.75 306.792 472.862 306.712C472.974 306.632 473.094 306.592 473.222 306.592C473.318 306.592 473.414 306.616 473.51 306.664C474.534 307.224 475.51 307.504 476.438 307.504C477.766 307.504 478.814 307.088 479.582 306.256C480.366 305.424 480.758 304.288 480.758 302.848V302.008C480.358 302.68 479.782 303.224 479.03 303.64C478.278 304.04 477.462 304.24 476.582 304.24C475.19 304.24 474.134 303.824 473.414 302.992C472.694 302.16 472.334 301.032 472.334 299.608V292.24C472.334 292.032 472.398 291.864 472.526 291.736C472.67 291.592 472.846 291.52 473.054 291.52C473.262 291.52 473.43 291.592 473.558 291.736C473.702 291.864 473.774 292.032 473.774 292.24V299.392C473.774 300.544 474.022 301.416 474.518 302.008C475.03 302.6 475.822 302.896 476.894 302.896C477.55 302.896 478.174 302.736 478.766 302.416C479.374 302.08 479.854 301.648 480.206 301.12C480.574 300.576 480.758 300 480.758 299.392V292.24C480.758 292.032 480.822 291.864 480.95 291.736C481.094 291.592 481.27 291.52 481.478 291.52ZM502.185 302.584C502.393 302.584 502.561 302.648 502.689 302.776C502.833 302.904 502.905 303.072 502.905 303.28C502.905 303.488 502.833 303.664 502.689 303.808C502.561 303.936 502.393 304 502.185 304H493.617C493.409 304 493.233 303.936 493.089 303.808C492.961 303.664 492.897 303.488 492.897 303.28V287.92C492.897 287.712 492.969 287.544 493.113 287.416C493.257 287.272 493.441 287.2 493.665 287.2C493.873 287.2 494.049 287.272 494.193 287.416C494.337 287.544 494.409 287.712 494.409 287.92V302.584H502.185ZM506.702 303.28C506.702 303.488 506.63 303.664 506.486 303.808C506.358 303.936 506.19 304 505.982 304C505.774 304 505.598 303.936 505.454 303.808C505.326 303.664 505.262 303.488 505.262 303.28V292.24C505.262 292.032 505.326 291.864 505.454 291.736C505.598 291.592 505.774 291.52 505.982 291.52C506.19 291.52 506.358 291.592 506.486 291.736C506.63 291.864 506.702 292.032 506.702 292.24V303.28ZM505.982 289.912C505.662 289.912 505.414 289.84 505.238 289.696C505.062 289.536 504.974 289.312 504.974 289.024V288.784C504.974 288.496 505.062 288.28 505.238 288.136C505.43 287.976 505.686 287.896 506.006 287.896C506.646 287.896 506.966 288.192 506.966 288.784V289.024C506.966 289.312 506.878 289.536 506.702 289.696C506.542 289.84 506.302 289.912 505.982 289.912ZM512.027 303.28C512.027 303.488 511.955 303.664 511.811 303.808C511.683 303.936 511.515 304 511.307 304C511.099 304 510.923 303.936 510.779 303.808C510.651 303.664 510.587 303.488 510.587 303.28V286.96C510.587 286.752 510.651 286.584 510.779 286.456C510.923 286.312 511.099 286.24 511.307 286.24C511.515 286.24 511.683 286.312 511.811 286.456C511.955 286.584 512.027 286.752 512.027 286.96V303.28ZM517.558 303.28C517.558 303.488 517.486 303.664 517.342 303.808C517.214 303.936 517.046 304 516.838 304C516.63 304 516.454 303.936 516.31 303.808C516.182 303.664 516.118 303.488 516.118 303.28V286.96C516.118 286.752 516.182 286.584 516.31 286.456C516.454 286.312 516.63 286.24 516.838 286.24C517.046 286.24 517.214 286.312 517.342 286.456C517.486 286.584 517.558 286.752 517.558 286.96V303.28ZM530.298 291.52C530.506 291.52 530.674 291.592 530.802 291.736C530.946 291.864 531.018 292.032 531.018 292.24V302.824C531.018 304.088 530.77 305.168 530.274 306.064C529.778 306.96 529.09 307.64 528.21 308.104C527.33 308.568 526.338 308.8 525.234 308.8C524.562 308.8 523.93 308.728 523.338 308.584C522.762 308.44 522.282 308.248 521.898 308.008C521.562 307.8 521.394 307.568 521.394 307.312C521.394 307.28 521.41 307.2 521.442 307.072C521.49 306.912 521.57 306.792 521.682 306.712C521.794 306.632 521.914 306.592 522.042 306.592C522.138 306.592 522.234 306.616 522.33 306.664C523.354 307.224 524.33 307.504 525.258 307.504C526.586 307.504 527.634 307.088 528.402 306.256C529.186 305.424 529.578 304.288 529.578 302.848V302.008C529.178 302.68 528.602 303.224 527.85 303.64C527.098 304.04 526.282 304.24 525.402 304.24C524.01 304.24 522.954 303.824 522.234 302.992C521.514 302.16 521.154 301.032 521.154 299.608V292.24C521.154 292.032 521.218 291.864 521.346 291.736C521.49 291.592 521.666 291.52 521.874 291.52C522.082 291.52 522.25 291.592 522.378 291.736C522.522 291.864 522.594 292.032 522.594 292.24V299.392C522.594 300.544 522.842 301.416 523.338 302.008C523.85 302.6 524.642 302.896 525.714 302.896C526.37 302.896 526.994 302.736 527.586 302.416C528.194 302.08 528.674 301.648 529.026 301.12C529.394 300.576 529.578 300 529.578 299.392V292.24C529.578 292.032 529.642 291.864 529.77 291.736C529.914 291.592 530.09 291.52 530.298 291.52Z" fill="#063844"/>
<path d="M53.952 208.52L45.312 196.904C42.752 197.416 40.256 197.672 37.824 197.672C31.488 197.672 25.664 196.2 20.352 193.256C15.104 190.312 10.912 186.216 7.776 180.968C4.704 175.656 3.168 169.704 3.168 163.112C3.168 156.52 4.704 150.6 7.776 145.352C10.912 140.104 15.104 136.008 20.352 133.064C25.664 130.12 31.488 128.648 37.824 128.648C44.16 128.648 49.952 130.12 55.2 133.064C60.512 136.008 64.672 140.104 67.68 145.352C70.752 150.6 72.288 156.52 72.288 163.112C72.288 168.872 71.104 174.152 68.736 178.952C66.432 183.688 63.2 187.624 59.04 190.76L73.824 208.52H53.952ZM19.968 163.112C19.968 169.064 21.568 173.832 24.768 177.416C28.032 180.936 32.384 182.696 37.824 182.696C43.2 182.696 47.488 180.904 50.688 177.32C53.952 173.736 55.584 169 55.584 163.112C55.584 157.16 53.952 152.424 50.688 148.904C47.488 145.32 43.2 143.528 37.824 143.528C32.384 143.528 28.032 145.288 24.768 148.808C21.568 152.328 19.968 157.096 19.968 163.112ZM133.16 197L126.92 190.952C120.712 195.688 113.288 198.056 104.648 198.056C99.4643 198.056 94.9523 197.224 91.1123 195.56C87.2723 193.832 84.2963 191.432 82.1843 188.36C80.1363 185.224 79.1123 181.576 79.1123 177.416C79.1123 173.192 80.2323 169.384 82.4723 165.992C84.7763 162.536 88.2003 159.72 92.7443 157.544C91.0803 155.496 89.8963 153.544 89.1923 151.688C88.4883 149.768 88.1363 147.688 88.1363 145.448C88.1363 142.248 88.9683 139.336 90.6323 136.712C92.2963 134.088 94.6963 132.04 97.8323 130.568C101.032 129.032 104.808 128.264 109.16 128.264C113.576 128.264 117.32 129.064 120.392 130.664C123.464 132.264 125.768 134.408 127.304 137.096C128.84 139.784 129.544 142.728 129.416 145.928H113.96C114.024 144.2 113.576 142.888 112.616 141.992C111.72 141.032 110.504 140.552 108.968 140.552C107.432 140.552 106.152 141 105.128 141.896C104.104 142.792 103.592 143.944 103.592 145.352C103.592 146.696 104.008 148.104 104.84 149.576C105.736 151.048 107.112 152.744 108.968 154.664L125.384 170.696C125.512 170.376 125.672 169.992 125.864 169.544C126.12 169.096 126.376 168.584 126.632 168.008L130.184 161.96H146.6L141.992 170.312C140.264 174.088 138.28 177.672 136.04 181.064L152.264 197H133.16ZM105.416 184.808C109.704 184.808 113.512 183.592 116.84 181.16L101.864 166.664C97.2563 169.032 94.9523 172.232 94.9523 176.264C94.9523 178.696 95.8803 180.744 97.7363 182.408C99.6563 184.008 102.216 184.808 105.416 184.808ZM200.154 185.096H175.002L170.97 197H153.786L178.17 129.608H197.178L221.562 197H204.186L200.154 185.096ZM195.93 172.424L187.578 147.752L179.322 172.424H195.93Z" fill="url(#paint1_linear)"/>
<defs>
<linearGradient id="paint0_linear" x1="405" y1="4.51348e-06" x2="605.5" y2="271" gradientUnits="userSpaceOnUse">
<stop stop-color="#2192D1"/>
<stop offset="1" stop-color="#A0EF3C"/>
</linearGradient>
<linearGradient id="paint1_linear" x1="66.5347" y1="37" x2="170.718" y2="228.39" gradientUnits="userSpaceOnUse">
<stop stop-color="#0A6B81"/>
<stop offset="1" stop-color="#A0EF3C"/>
</linearGradient>
</defs>
</svg>
