<?xml version="1.0" standalone="no"?>
<!DOCTYPE svg PUBLIC "-//W3C//DTD SVG 20010904//EN"
 "http://www.w3.org/TR/2001/REC-SVG-20010904/DTD/svg10.dtd">
<svg version="1.0" xmlns="http://www.w3.org/2000/svg"
 width="1088.000000pt" height="1088.000000pt" viewBox="0 0 1088.000000 1088.000000"
 preserveAspectRatio="xMidYMid meet">
<metadata>
Created by potrace 1.14, written by Peter Selinger 2001-2017
</metadata>
<g transform="translate(0.000000,1088.000000) scale(0.100000,-0.100000)"
fill="#000000" stroke="none">
<path d="M945 10857 c-30 -16 -48 -37 -70 -82 l-30 -60 0 -210 c1 -188 6 -291
20 -393 4 -31 7 -46 19 -102 3 -14 11 -49 17 -79 13 -63 44 -162 65 -208 8
-17 14 -34 14 -38 0 -29 159 -304 182 -313 4 -2 8 -8 8 -14 0 -26 227 -265
350 -368 36 -30 67 -57 70 -61 3 -3 59 -46 125 -97 147 -113 132 -101 183
-136 23 -16 42 -34 43 -40 0 -6 2 -22 4 -36 2 -14 4 -43 6 -65 1 -22 5 -44 8
-50 3 -5 6 -26 8 -45 2 -19 10 -73 19 -120 9 -47 18 -94 19 -105 2 -11 4 -21
5 -22 3 -3 3 -6 14 -53 18 -83 91 -283 138 -378 48 -99 167 -290 205 -330 10
-10 38 -43 63 -72 25 -30 75 -83 111 -119 58 -59 91 -89 204 -187 42 -36 317
-241 395 -295 35 -24 67 -46 71 -49 7 -5 13 -40 24 -135 3 -27 7 -61 10 -75 2
-14 7 -45 10 -70 10 -69 16 -111 21 -131 4 -19 9 -40 19 -89 3 -14 7 -34 9
-45 2 -11 12 -47 22 -80 10 -33 18 -62 19 -65 15 -79 114 -306 191 -437 91
-152 272 -361 412 -473 24 -19 49 -40 55 -45 7 -6 28 -22 47 -35 19 -13 40
-29 47 -35 19 -16 37 -29 59 -42 10 -6 57 -36 104 -65 46 -29 91 -56 100 -61
8 -4 47 -25 85 -47 69 -39 237 -123 345 -173 137 -63 185 -83 335 -144 215
-87 200 -78 171 -111 -13 -15 -46 -54 -72 -88 -203 -255 -468 -508 -681 -650
-48 -32 -90 -62 -93 -65 -9 -10 -294 -171 -310 -174 -3 -1 -43 -20 -90 -43
-47 -22 -88 -40 -91 -39 -4 1 -16 -7 -28 -17 -12 -11 -21 -16 -21 -12 0 3 -15
-1 -32 -10 -35 -18 -214 -28 -224 -13 -2 5 -10 6 -17 3 -7 -2 -37 3 -67 11
-30 8 -64 17 -74 20 -46 11 -186 63 -316 118 -14 5 -29 11 -35 13 -5 1 -44 18
-85 37 -41 19 -89 40 -107 46 -30 12 -132 110 -204 196 -19 22 -39 46 -46 53
-6 6 -15 21 -18 32 -3 11 -11 20 -16 20 -5 0 -9 5 -9 10 0 6 -12 29 -27 53
-14 23 -26 48 -26 54 0 7 -4 13 -8 13 -9 0 -45 119 -55 180 -13 83 -6 218 15
288 5 17 7 32 4 32 -3 0 0 7 7 15 7 8 9 15 5 15 -4 0 -2 7 5 15 7 8 9 15 5 15
-4 0 -2 7 5 15 7 8 10 15 7 15 -9 0 18 61 90 208 36 72 70 132 74 132 5 0 9 6
9 13 0 12 117 206 130 217 4 3 20 28 35 55 16 28 32 52 36 55 11 9 59 90 53
90 -4 0 -1 6 5 13 6 8 8 17 4 20 -3 4 -2 7 3 7 16 0 5 99 -15 144 -24 53 -47
77 -96 103 -49 26 -105 44 -105 35 0 -4 -22 -7 -48 -8 -79 -1 -110 -24 -206
-148 -126 -164 -214 -295 -279 -416 -17 -30 -34 -56 -38 -58 -5 -2 -9 -8 -9
-13 0 -5 -20 -51 -44 -102 -23 -50 -49 -110 -56 -132 -7 -22 -15 -44 -19 -50
-3 -5 -7 -14 -8 -20 -1 -5 -12 -46 -23 -90 -39 -148 -40 -369 -5 -585 21 -125
83 -319 127 -398 10 -18 18 -39 18 -47 0 -8 5 -15 10 -15 6 0 10 -4 10 -10 0
-12 47 -86 86 -136 56 -72 149 -162 204 -196 76 -48 253 -132 385 -183 39 -14
80 -31 93 -36 12 -5 32 -13 45 -18 12 -5 40 -15 62 -22 22 -6 46 -17 54 -23 8
-6 16 -10 18 -8 2 2 54 -12 116 -32 95 -29 133 -41 212 -62 45 -13 62 -16 78
-17 9 -1 17 -4 17 -7 0 -4 10 -6 23 -5 12 1 29 -1 37 -6 15 -7 111 -20 182
-24 21 -1 63 7 95 17 32 10 67 20 78 22 11 3 48 16 82 30 35 14 69 26 78 26 8
0 15 5 15 10 0 6 6 10 14 10 12 0 59 19 171 70 22 10 44 18 49 18 5 0 12 4 15
9 3 4 40 26 81 47 41 21 82 45 91 52 8 8 20 14 26 14 14 0 328 213 353 240 3
3 21 18 40 34 242 198 495 469 706 756 30 41 61 82 68 91 7 8 21 30 32 47 10
18 21 32 25 32 4 0 9 8 13 18 6 17 27 53 37 62 18 16 43 92 43 130 0 109 -100
185 -485 373 -203 99 -255 124 -279 132 -3 1 -32 15 -65 30 -33 16 -63 29 -67
29 -4 1 -13 7 -19 13 -7 7 -19 13 -26 13 -8 0 -40 14 -73 30 -33 17 -66 30
-73 30 -8 0 -20 7 -27 15 -7 9 -15 13 -18 11 -3 -3 -17 1 -31 8 -14 7 -88 44
-163 81 -76 37 -138 72 -138 76 0 5 -9 9 -20 9 -11 0 -20 4 -20 10 0 5 -15 16
-34 25 -19 9 -42 25 -52 36 -9 10 -23 19 -31 19 -7 0 -13 4 -13 8 0 4 -13 16
-30 25 -16 10 -35 23 -42 30 -7 7 -38 33 -68 58 -77 65 -138 126 -185 184 -22
28 -46 57 -54 65 -40 42 -170 270 -154 270 3 0 1 6 -5 13 -15 18 -51 146 -58
208 -6 49 -8 127 -5 172 1 19 0 19 109 -30 20 -9 39 -17 42 -18 3 -1 55 -25
115 -54 254 -123 316 -151 325 -151 6 0 10 -5 10 -12 0 -6 3 -9 6 -5 3 3 36
-9 72 -28 63 -30 95 -46 294 -139 42 -20 80 -36 86 -36 5 0 15 -7 22 -15 6 -8
15 -14 18 -13 7 2 35 -11 247 -113 72 -34 135 -63 140 -65 6 -1 80 -36 165
-77 85 -41 189 -89 230 -108 41 -18 77 -37 78 -41 2 -5 8 -8 13 -8 4 0 33 -11
63 -25 58 -27 130 -34 161 -18 11 6 23 10 27 10 4 -1 28 16 54 37 98 82 129
234 68 333 -31 50 -52 63 -249 155 -44 21 -133 62 -199 93 -65 30 -125 55
-132 55 -8 0 -14 4 -14 9 0 5 -10 13 -22 16 -22 7 -59 23 -188 83 -30 14 -57
26 -60 27 -3 1 -18 7 -33 13 -16 7 -33 12 -38 12 -5 0 -9 5 -9 10 0 6 -6 10
-14 10 -8 0 -31 9 -53 19 -21 11 -58 28 -83 39 -25 11 -67 31 -95 43 -27 13
-52 23 -55 24 -3 0 -23 9 -45 19 -62 29 -106 48 -300 134 -99 44 -193 87 -209
96 -16 8 -33 13 -38 10 -4 -3 -8 0 -8 5 0 6 -5 11 -12 11 -6 0 -39 13 -72 29
-175 84 -278 131 -287 131 -5 0 -9 5 -9 10 0 6 -6 10 -12 10 -28 0 -392 193
-521 276 -37 24 -72 44 -77 44 -6 0 -10 4 -10 8 0 4 -15 16 -32 27 -18 10 -38
24 -44 29 -7 6 -24 20 -40 31 -15 11 -41 31 -58 45 -17 14 -42 34 -55 45 -42
34 -175 169 -201 204 -14 18 -30 38 -36 44 -16 18 -89 128 -110 167 -10 19
-25 41 -31 48 -7 7 -13 22 -13 33 0 10 -4 19 -10 19 -5 0 -10 9 -10 19 0 11
-4 22 -9 25 -21 13 -136 372 -122 380 3 2 44 -14 91 -36 88 -41 162 -76 263
-122 32 -14 62 -26 67 -26 6 0 10 -4 10 -10 0 -5 6 -10 14 -10 8 0 41 -13 73
-30 31 -16 62 -30 68 -30 6 0 16 -5 23 -12 6 -6 17 -13 24 -14 7 -1 60 -24
118 -52 58 -27 125 -59 150 -70 25 -11 86 -39 135 -62 50 -23 117 -55 150 -70
33 -15 94 -43 135 -63 41 -19 104 -48 140 -65 64 -29 260 -120 435 -202 50
-23 109 -51 133 -61 24 -11 91 -43 150 -70 59 -28 123 -58 142 -66 19 -9 87
-40 150 -71 139 -67 217 -90 290 -87 88 4 167 49 185 105 3 11 10 20 13 20 9
0 15 39 15 102 0 64 -42 148 -97 193 -24 19 -46 35 -49 35 -13 0 -222 104
-225 112 -2 4 -10 8 -18 8 -7 0 -30 9 -51 19 -21 11 -90 44 -153 74 -107 51
-155 74 -335 157 -38 18 -108 50 -155 72 -47 22 -89 41 -95 42 -5 1 -41 17
-80 35 -170 80 -305 141 -312 141 -2 0 -32 13 -66 30 -34 16 -95 43 -136 60
-40 18 -106 47 -147 66 -41 19 -76 34 -79 34 -3 0 -37 16 -75 35 -39 19 -74
35 -78 36 -14 3 -47 17 -112 47 -36 17 -110 50 -165 75 -156 70 -224 102 -325
151 -52 25 -100 46 -106 46 -7 0 -14 3 -16 8 -1 4 -46 29 -98 56 -457 234
-733 438 -905 671 -48 64 -145 236 -152 270 -1 6 -10 30 -19 55 -17 45 -30 94
-40 140 -3 14 -7 32 -9 40 -3 8 -7 35 -10 60 -3 25 -8 57 -11 73 -3 15 -3 27
-1 27 6 0 85 -33 142 -60 68 -32 226 -102 235 -105 3 0 25 -11 50 -22 25 -12
127 -57 226 -102 100 -44 220 -98 267 -121 47 -22 87 -40 90 -40 3 0 53 -22
112 -50 59 -27 108 -50 110 -50 2 0 45 -20 97 -44 51 -24 116 -53 143 -66 96
-43 336 -155 614 -286 63 -30 120 -54 126 -54 7 0 16 -7 19 -16 4 -9 9 -14 12
-11 3 2 41 -13 85 -34 44 -21 84 -39 89 -39 6 0 10 -5 10 -12 0 -6 3 -8 6 -5
4 3 16 1 28 -5 11 -7 24 -11 29 -10 4 1 7 -2 7 -8 0 -5 4 -10 10 -10 5 0 156
-72 335 -160 179 -88 326 -158 328 -157 1 1 16 -7 32 -19 30 -21 52 -31 69
-32 5 0 12 -4 15 -9 3 -4 51 -31 106 -58 55 -28 102 -53 103 -57 2 -5 12 -8
22 -8 10 0 20 -3 22 -7 2 -5 37 -25 78 -46 71 -35 143 -74 320 -170 41 -22 77
-44 78 -49 2 -4 10 -8 18 -8 13 0 52 -18 64 -30 5 -5 23 -16 99 -58 60 -33
202 -124 221 -143 8 -8 33 -27 55 -43 40 -30 251 -238 290 -286 49 -60 115
-151 160 -220 28 -41 52 -77 55 -80 3 -3 19 -31 35 -62 17 -32 33 -58 38 -58
4 0 7 -5 7 -11 0 -6 21 -54 47 -107 27 -53 48 -99 49 -102 0 -3 8 -23 18 -45
56 -124 161 -464 180 -580 2 -16 9 -55 15 -85 6 -30 12 -68 15 -85 2 -16 5
-30 6 -30 1 0 3 -20 5 -45 2 -25 6 -67 9 -94 15 -120 20 -391 10 -536 -11
-167 -13 -195 -14 -195 -1 0 -3 -11 -5 -25 -17 -128 -24 -172 -40 -240 -1 -3
-5 -25 -10 -50 -5 -25 -9 -47 -10 -50 -1 -3 -5 -18 -9 -35 -28 -113 -60 -222
-69 -232 -5 -7 -7 -13 -3 -13 5 0 -32 -114 -58 -175 -7 -16 -19 -46 -26 -65
-7 -19 -28 -68 -46 -108 -19 -41 -34 -78 -34 -83 0 -5 -5 -9 -12 -9 -6 0 -8
-3 -5 -6 7 -7 -21 -64 -36 -75 -5 -3 -8 -9 -8 -13 2 -10 -51 -110 -61 -117 -5
-3 -10 -10 -11 -15 -2 -21 -136 -234 -170 -271 -11 -13 -17 -23 -14 -23 6 0
-10 -22 -38 -54 -6 -6 -22 -27 -35 -46 -13 -19 -27 -37 -30 -40 -3 -3 -21 -25
-40 -50 -19 -25 -44 -55 -55 -66 -11 -12 -41 -46 -67 -75 -128 -148 -325 -333
-508 -478 -36 -29 -76 -61 -90 -72 -14 -11 -37 -28 -52 -37 -16 -9 -28 -20
-28 -24 0 -4 -7 -8 -15 -8 -8 0 -15 -4 -15 -10 0 -5 -6 -10 -14 -10 -8 0 -16
-4 -18 -8 -2 -7 -113 -81 -283 -190 -11 -6 -36 -20 -55 -30 -19 -9 -37 -19
-40 -22 -6 -6 -55 -33 -154 -86 -52 -27 -83 -51 -89 -66 -19 -50 34 -146 151
-274 35 -38 84 -105 109 -149 26 -44 52 -83 58 -87 5 -4 6 -8 1 -8 -5 0 -2 -8
6 -17 8 -10 18 -25 22 -33 3 -8 15 -28 26 -45 11 -16 28 -46 39 -66 11 -21 26
-43 33 -51 12 -13 19 -24 50 -80 7 -13 15 -25 18 -28 9 -9 60 -90 60 -95 0 -3
4 -11 10 -18 43 -53 60 -76 60 -81 0 -3 17 -30 37 -59 60 -86 122 -171 131
-182 5 -6 22 -29 38 -51 16 -22 35 -46 41 -54 7 -8 36 -44 65 -80 80 -99 243
-255 282 -269 6 -2 18 -12 26 -21 8 -9 58 -46 110 -83 52 -37 100 -71 106 -76
34 -28 195 -123 299 -176 193 -100 447 -189 648 -229 15 -4 37 -8 50 -11 12
-2 33 -6 47 -9 14 -3 35 -7 46 -10 12 -2 39 -7 60 -10 22 -3 56 -9 77 -12 56
-9 87 -13 142 -19 28 -3 78 -10 112 -15 34 -6 66 -10 70 -9 4 1 10 0 13 -1 40
-17 1055 -28 1405 -15 169 6 300 13 300 15 0 1 14 4 30 6 89 13 275 77 275 95
0 6 4 8 9 4 5 -3 15 1 23 8 7 7 20 16 28 19 48 18 194 150 260 234 68 86 145
251 153 329 2 11 5 25 8 30 14 24 7 222 -10 287 -19 69 -55 148 -96 206 -42
60 -225 222 -251 222 -2 0 -22 11 -43 24 -21 14 -41 23 -43 20 -3 -2 -11 2
-18 11 -7 8 -19 15 -26 15 -8 0 -42 13 -76 29 -139 65 -219 101 -223 101 -3 0
-33 13 -67 29 -76 34 -372 161 -388 166 -3 1 -22 9 -44 18 -21 9 -41 17 -43
17 -3 0 -20 7 -39 15 -71 31 -102 44 -214 85 -113 42 -122 48 -180 120 -87
110 -110 140 -110 149 0 6 -4 11 -8 11 -5 0 -37 42 -72 93 -35 50 -68 94 -72
95 -4 2 -8 10 -8 18 0 8 -4 14 -10 14 -5 0 -10 4 -10 9 0 5 -31 58 -68 118
-38 59 -85 139 -106 176 -20 37 -46 83 -56 103 -28 49 -170 333 -214 429 -64
138 -69 145 -111 188 -55 57 -124 89 -196 90 -137 2 -208 -119 -175 -296 7
-34 39 -121 71 -192 113 -250 297 -606 316 -613 5 -2 9 -12 9 -22 0 -9 7 -23
15 -30 8 -7 15 -17 15 -22 0 -5 9 -21 19 -36 10 -15 47 -70 81 -122 90 -137
222 -320 232 -320 4 0 8 -5 8 -10 0 -10 85 -124 123 -165 11 -11 26 -30 34
-42 8 -12 40 -35 71 -52 31 -16 95 -50 142 -75 90 -49 554 -279 630 -314 25
-11 74 -32 110 -46 36 -15 77 -33 92 -42 15 -8 30 -15 33 -14 13 1 62 -14 80
-26 11 -7 23 -13 28 -13 15 -1 63 -13 82 -21 11 -4 36 -14 55 -21 19 -7 43
-19 53 -27 9 -8 17 -12 17 -8 0 10 78 -51 108 -84 39 -42 72 -98 75 -128 2
-15 6 -32 9 -37 11 -21 -8 -135 -23 -135 -5 0 -9 -6 -9 -14 0 -18 -80 -89
-125 -110 -19 -9 -36 -16 -37 -16 -2 1 -16 -4 -33 -10 -39 -15 -67 -21 -180
-35 -262 -33 -1429 -19 -1725 20 -14 1 -45 6 -70 10 -25 4 -56 8 -70 10 -14 1
-33 6 -42 10 -9 4 -21 4 -27 1 -5 -4 -12 -2 -16 4 -4 6 -11 8 -16 5 -5 -4 -14
-3 -21 1 -7 4 -25 9 -41 11 -16 2 -66 12 -111 24 -44 11 -91 22 -103 25 -12 2
-35 9 -50 15 -16 6 -29 10 -30 10 -3 -1 -12 2 -108 35 -71 24 -245 100 -285
124 -8 5 -33 19 -55 31 -46 24 -243 155 -265 175 -8 7 -64 53 -125 101 -129
101 -215 187 -215 212 0 5 -4 11 -8 13 -10 4 -152 184 -152 192 0 3 -8 14 -17
25 -25 27 -52 62 -71 94 -9 15 -20 27 -24 27 -4 0 -8 6 -8 14 0 8 -4 16 -8 18
-8 3 -152 216 -152 225 0 2 -13 23 -29 46 -15 23 -58 93 -94 156 l-66 114 82
58 c45 32 89 65 97 72 8 8 29 22 45 33 17 10 37 26 46 36 9 10 19 18 23 18 9
0 300 229 362 285 6 5 32 28 58 50 240 204 483 468 669 725 34 47 65 87 69 88
5 2 6 7 3 12 -2 4 4 15 15 25 11 10 20 24 20 32 0 7 7 16 15 19 8 4 15 11 15
16 0 6 14 30 30 55 17 24 30 48 30 54 0 5 5 9 10 9 6 0 10 5 10 11 0 6 20 41
44 79 25 37 42 71 39 74 -4 3 -1 6 5 6 7 0 12 4 12 9 0 6 15 36 34 68 19 33
38 71 41 86 4 15 11 27 16 27 5 0 9 11 9 25 0 14 5 25 10 25 6 0 10 8 10 18 0
10 3 22 7 26 5 4 8 11 9 14 3 24 17 62 23 62 4 0 8 6 8 13 0 6 19 68 43 137
23 69 44 132 45 140 2 8 14 49 25 90 12 41 23 82 25 90 2 8 10 44 19 80 18 77
26 116 31 150 2 14 11 68 20 120 9 52 18 115 21 140 2 25 6 65 9 90 17 145 25
456 13 482 -5 10 -4 19 2 23 6 4 8 10 5 15 -3 5 -7 46 -10 92 -8 142 -18 225
-46 378 -10 58 -21 116 -23 130 -3 14 -5 25 -6 25 -1 0 -4 14 -6 30 -3 17 -9
44 -15 61 -5 17 -12 40 -14 50 -6 27 -41 146 -47 164 -3 8 -16 44 -28 80 -12
36 -28 79 -36 97 -8 17 -14 34 -14 38 0 11 -111 257 -120 265 -3 3 -21 37 -40
75 -52 106 -203 346 -222 353 -4 2 -8 8 -8 13 0 12 -79 113 -91 117 -5 2 -9 8
-9 13 0 9 -14 27 -99 124 -83 93 -353 355 -368 355 -2 0 -21 16 -41 35 -20 19
-45 38 -54 41 -10 3 -18 8 -18 12 0 4 -18 18 -40 32 -22 14 -40 28 -40 32 0 5
-6 8 -14 8 -8 0 -16 4 -18 8 -4 12 -95 72 -107 72 -6 0 -11 4 -11 8 0 5 -15
16 -32 26 -49 25 -74 41 -89 53 -8 6 -72 41 -144 78 -71 37 -134 71 -140 76
-5 5 -15 9 -21 9 -7 0 -52 19 -101 41 -48 23 -89 41 -91 40 -1 -1 -28 12 -60
28 -129 66 -269 131 -280 131 -7 0 -12 4 -12 10 0 5 -3 9 -7 8 -5 -1 -42 14
-83 34 -41 19 -106 51 -145 69 -38 18 -73 32 -77 31 -5 -1 -8 3 -8 8 0 6 -4
10 -10 10 -5 0 -52 20 -102 44 -51 24 -145 68 -208 99 -108 51 -166 78 -380
180 -47 22 -132 62 -190 90 -370 175 -424 201 -430 202 -3 0 -42 19 -87 42
-45 23 -84 39 -87 36 -3 -4 -6 -1 -6 5 0 7 -4 12 -9 12 -6 0 -63 25 -128 56
-152 72 -279 133 -395 188 -51 24 -136 64 -188 89 -52 25 -98 44 -101 43 -4 0
-16 8 -28 18 -12 11 -21 16 -21 12 0 -3 -15 1 -32 11 -18 9 -36 16 -40 15 -5
-1 -8 3 -8 8 0 6 -4 10 -10 10 -10 0 -213 94 -240 110 -8 6 -26 15 -40 21 -36
15 -82 36 -284 133 -216 104 -252 117 -336 122 -53 2 -73 -1 -105 -19z"/>
</g>
</svg>
